PathFileType  4	(X/Y/Z) C:\Users\antoi\Documents\MyRepositories\mobilecap\ResultsAnalysis
DataRate	CameraRate	NumFrames	NumMarkers	Units	OrigDataRate	OrigDataStartFrame	OrigNumFrames
100.0	100.0	5	51	mm	100.0	161	256
Frame#	Time	r_knee			r_shank_antsup			r_ankle			r_calc			r_5meta			r_toe			L_knee			L_shank_antsup			L_ankle			L_calc			L_5meta			L_toe			r_sh2			r_sh3			r_sh4			L_sh2			L_sh3			r_thigh1			r_thigh2			r_thigh3			r_thigh4			r_thigh5			L_thigh1			L_thigh2			L_thigh3			L_thigh4			r.ASIS			r.PSIS			L.ASIS			L.PSIS			C7			R_Shoulder			L_Shoulder			R_Sternum			L_Sternum			R_humerus			R_elbow_med			R_elbow_lat			R_forearm			R_wrist_radius			R_wrist_ulna			L_humerus			L_elbow_med			L_elbow_lat			L_forearm			L_wrist_radius			L_wrist_ulna			R_HJC			L_HJC			R_HJC_reg			L_HJC_reg			
		X1	Y1	Z1	X2	Y2	Z2	X3	Y3	Z3	X4	Y4	Z4	X5	Y5	Z5	X6	Y6	Z6	X7	Y7	Z7	X8	Y8	Z8	X9	Y9	Z9	X10	Y10	Z10	X11	Y11	Z11	X12	Y12	Z12	X13	Y13	Z13	X14	Y14	Z14	X15	Y15	Z15	X16	Y16	Z16	X17	Y17	Z17	X18	Y18	Z18	X19	Y19	Z19	X20	Y20	Z20	X21	Y21	Z21	X22	Y22	Z22	X23	Y23	Z23	X24	Y24	Z24	X25	Y25	Z25	X26	Y26	Z26	X27	Y27	Z27	X28	Y28	Z28	X29	Y29	Z29	X30	Y30	Z30	X31	Y31	Z31	X32	Y32	Z32	X33	Y33	Z33	X34	Y34	Z34	X35	Y35	Z35	X36	Y36	Z36	X37	Y37	Z37	X38	Y38	Z38	X39	Y39	Z39	X40	Y40	Z40	X41	Y41	Z41	X42	Y42	Z42	X43	Y43	Z43	X44	Y44	Z44	X45	Y45	Z45	X46	Y46	Z46	X47	Y47	Z47	X48	Y48	Z48	X49	Y49	Z49	X50	Y50	Z50	X51	Y51	Z51	

161	1.60000000	-14.04633	538.16387	-309.01670	-85.63532	428.15369	-274.88115	-272.79498	128.88609	-313.09243	-336.74969	108.26089	-376.12535	-161.72971	42.14073	-275.68373	-117.17169	62.00104	-324.88190	2.80531	481.38627	-727.99267	-47.29932	304.22775	-766.14867	-301.13718	137.79946	-821.25378	-367.21742	90.81265	-767.41577	-204.89375	59.12497	-919.37120	-149.00655	67.44739	-865.87883	-150.72933	336.61661	-273.47240	-26.67922	395.13417	-306.53135	-90.21063	300.28273	-317.06653	-98.20587	369.74209	-795.16674	-181.03947	284.37730	-807.19721	-253.83763	693.31026	-314.17555	-146.83676	661.97731	-301.91150	-145.38982	593.23359	-292.33093	-287.34580	584.89420	-331.57496	-173.33418	549.98008	-316.71280	-255.59193	600.91896	-736.47333	-133.55131	537.82014	-754.96801	-197.27124	685.83954	-697.01476	-79.43898	619.76895	-707.83881	-314.35749	763.96025	-374.20570	-466.72262	851.66734	-500.77595	-286.25126	732.03608	-648.70612	-448.23127	844.12412	-588.70107	-31.78789	1116.78677	-556.16741	31.81580	1047.11396	-400.60550	3.34435	1022.83467	-709.05707	15.75414	959.72312	-521.15473	10.30773	948.41086	-563.65223	140.65294	870.98116	-303.31171	137.91227	715.79054	-260.53683	176.36407	782.14232	-210.19859	311.32589	799.89834	-378.29903	356.24535	806.58052	-447.73042	382.73672	791.61856	-424.48899	77.08518	791.64395	-797.59160	20.07973	668.54742	-812.51684	72.05787	708.94443	-868.81266	229.24904	743.11629	-738.36168	270.85358	756.86408	-682.98486	289.18262	738.98046	-705.79168	-419.93545	701.47902	-422.32638	-399.44015	683.59065	-617.91983	-413.14481	700.06863	-429.58861	-375.54673	684.72971	-608.36639	
162	1.61000000	-11.68281	538.48653	-312.16711	-84.02180	429.07218	-277.45573	-272.22544	129.93143	-313.81647	-336.23170	109.50044	-376.55606	-161.58341	42.39714	-275.69144	-116.99806	62.05357	-325.07527	3.19379	480.03824	-726.33456	-47.95933	302.94689	-765.55039	-302.06713	137.18535	-822.83049	-368.40135	90.20462	-769.56913	-205.06486	58.18130	-920.26101	-149.51808	67.35998	-866.60395	-149.55274	337.91277	-275.26656	-25.10038	395.48722	-308.97392	-89.09136	300.68076	-318.80862	-98.39392	368.62193	-794.71191	-181.39997	283.50437	-807.38843	-248.81244	697.20936	-316.19331	-142.31232	664.20754	-304.06127	-141.91973	595.50873	-294.77599	-283.97292	589.64889	-334.29330	-170.43126	552.82697	-319.74019	-252.03384	605.64892	-736.43341	-131.48490	539.63047	-754.30816	-191.85759	689.34013	-696.94909	-75.61235	620.17086	-706.80553	-311.61700	772.26620	-375.48595	-464.10689	859.73171	-501.24676	-282.99826	740.52323	-650.38543	-445.37787	852.76233	-589.57458	-33.12120	1130.99731	-555.54835	32.24092	1062.36749	-400.22197	3.39028	1038.88121	-709.00342	16.52897	974.31251	-521.65229	10.95840	962.74068	-562.98580	140.26772	884.87503	-302.07424	137.60211	730.10131	-258.28326	175.36149	796.70082	-207.61577	309.32652	816.59816	-376.29215	354.16502	824.14489	-445.54452	380.95142	809.28662	-422.37807	76.93791	808.35582	-800.34458	20.40892	685.55566	-816.15330	71.54590	726.77338	-872.42692	228.96794	761.17397	-742.50839	270.72749	774.58220	-687.08476	289.19909	757.02732	-710.11664	-416.89537	709.53232	-423.62760	-396.44674	692.15966	-619.27325	-410.08969	707.28152	-431.36221	-372.11644	693.14970	-610.44956	
163	1.62000000	-9.29713	538.86623	-315.39032	-82.32072	430.01790	-280.00958	-271.60007	130.71952	-314.77066	-335.57551	110.78521	-376.98509	-161.38560	42.71109	-275.78032	-116.71865	62.12768	-325.30976	3.68907	479.26434	-725.17682	-48.40811	301.76561	-764.45375	-302.71572	136.69169	-823.82927	-369.21405	89.72580	-771.18861	-205.08524	57.58756	-920.74597	-149.75992	67.31885	-867.06748	-148.35694	339.13432	-277.13795	-23.45397	396.04285	-311.27785	-87.82112	301.28588	-320.47694	-98.40073	367.69269	-794.16694	-181.53552	282.75149	-807.32450	-243.57216	701.32611	-318.33811	-137.71178	666.65065	-306.07994	-138.35215	598.01778	-296.98571	-280.45540	594.66167	-336.80043	-167.49628	555.92982	-322.47860	-248.28222	610.41483	-736.38711	-129.33685	541.59260	-753.45570	-186.42072	692.97049	-697.00627	-71.57806	620.61800	-705.26890	-308.96228	780.91539	-376.78963	-461.54369	867.91434	-502.07278	-279.16489	749.79673	-651.50121	-442.63311	861.39044	-590.53183	-34.84621	1145.93009	-554.75733	32.32991	1078.05926	-399.96415	3.12494	1056.03522	-708.61959	17.03299	989.76719	-521.99913	11.96919	978.78163	-564.02786	140.33933	899.99713	-300.49976	137.97623	745.69142	-255.39927	174.76189	812.66253	-204.68609	307.60642	835.13803	-374.03036	352.75093	843.87779	-442.53845	379.60794	829.32494	-419.57338	77.45108	827.12547	-803.76049	21.82101	704.22867	-820.55812	71.91098	746.60051	-876.82909	229.54809	781.48554	-747.39231	271.44389	794.54736	-691.99837	290.10948	777.28054	-715.26141	-413.69094	717.71411	-425.04127	-392.74768	701.00293	-620.69174	-406.68349	715.34729	-432.96871	-368.41571	702.14646	-611.97478	
164	1.63000000	-6.97438	539.38840	-318.38224	-80.59031	430.90490	-282.46539	-270.81511	131.72638	-315.30750	-334.81161	112.03673	-377.30209	-161.15504	43.13878	-275.95758	-116.36974	62.22431	-325.56922	4.26397	479.13052	-724.33846	-48.51828	300.99880	-763.13104	-303.06212	136.42420	-824.29967	-369.62178	89.50157	-772.06054	-205.01776	57.33565	-920.85179	-149.79155	67.26225	-867.19836	-146.95151	340.23411	-279.15752	-21.78733	396.66529	-313.28036	-86.40620	302.03983	-321.95787	-98.23328	367.10989	-793.44741	-181.46976	282.28043	-807.01234	-238.11121	705.69500	-320.29627	-132.95769	669.20931	-308.09562	-134.66881	600.62443	-299.19134	-276.83659	599.83687	-339.31859	-164.49767	559.13002	-325.12214	-244.38669	615.44910	-736.41893	-127.15187	543.67111	-752.35465	-181.09181	696.84016	-697.35878	-67.80065	621.68608	-704.44939	-306.45944	789.86428	-378.05629	-459.01303	876.13608	-503.22459	-275.12753	759.82084	-652.27917	-440.00081	870.04104	-591.59273	-36.95280	1161.53347	-553.78008	31.88448	1094.22661	-399.68651	2.58437	1074.07081	-708.04641	17.40165	1006.09986	-522.28507	12.82331	995.81401	-565.37060	140.77723	916.59116	-298.45704	139.07642	762.65969	-252.28218	174.62969	830.14468	-201.57608	306.51203	855.91913	-370.95011	351.82941	865.92889	-439.04202	378.82685	851.85987	-416.23018	78.68311	847.92314	-807.80297	24.62086	724.37015	-826.04456	73.40906	768.57546	-882.23379	231.09595	804.18447	-753.15998	273.21992	817.02346	-697.93640	292.09170	800.02802	-721.29918	-410.41956	726.01359	-426.58867	-388.60872	710.12483	-622.21209	-403.10093	723.97763	-434.40841	-364.64623	711.64993	-613.14413	
165	1.64000000	-4.67753	540.03249	-320.90250	-78.85663	431.75889	-284.74871	-270.04092	133.23553	-315.16305	-334.04539	113.35007	-377.49758	-160.92099	43.56197	-276.12592	-116.03042	62.29659	-325.74910	4.81632	479.33391	-723.04248	-48.47264	300.70251	-761.68290	-303.13365	136.44964	-824.34600	-369.70454	89.56999	-772.40869	-204.92210	57.28988	-920.72685	-149.71026	67.18168	-867.07228	-145.42110	341.36846	-280.86549	-20.14578	397.22768	-315.06561	-84.96239	302.76774	-323.30241	-97.97992	366.86227	-792.31589	-181.22490	282.14186	-806.45881	-232.58260	710.35777	-321.82237	-128.05176	671.82211	-310.11625	-130.95861	603.22284	-301.40219	-273.13225	605.09200	-341.88525	-161.48563	562.39480	-327.76411	-240.43048	620.71520	-736.34859	-124.95252	546.03539	-751.10228	-175.76226	700.85784	-697.75373	-64.36563	623.43125	-704.24900	-304.02207	799.19240	-379.27758	-456.48700	884.36370	-504.44115	-270.95261	770.46115	-653.05654	-437.47598	878.73893	-592.75377	-39.41546	1177.72392	-552.72524	30.82950	1111.04363	-399.37843	1.84199	1092.77973	-707.26264	17.74893	1023.26289	-522.51337	13.11204	1013.19503	-565.52783	141.38749	934.75342	-295.92567	141.10816	781.12669	-249.13828	174.92928	849.24598	-198.11655	306.08555	879.11676	-366.95022	351.25283	890.51369	-435.14507	378.59237	876.90144	-412.34261	80.74647	870.49712	-812.38672	29.06643	745.95877	-832.85696	76.24167	792.72153	-888.58863	233.75229	829.28329	-759.66402	276.02861	842.20137	-704.84696	295.20551	825.49987	-728.10417	-406.96176	734.44589	-428.22045	-384.14390	719.50719	-623.80435	-399.27983	732.89838	-435.66869	-360.84373	721.52589	-614.21814	
